<?xml version="1.0" encoding="UTF-8" standalone="no"?>
<!-- Created with Inkscape (http://www.inkscape.org/) -->

<svg
   xmlns:dc="http://purl.org/dc/elements/1.1/"
   xmlns:cc="http://creativecommons.org/ns#"
   xmlns:rdf="http://www.w3.org/1999/02/22-rdf-syntax-ns#"
   xmlns:svg="http://www.w3.org/2000/svg"
   xmlns="http://www.w3.org/2000/svg"
   xmlns:sodipodi="http://sodipodi.sourceforge.net/DTD/sodipodi-0.dtd"
   xmlns:inkscape="http://www.inkscape.org/namespaces/inkscape"
   width="130mm"
   height="130mm"
   viewBox="0 0 460.62993 460.62993"
   id="svg2"
   version="1.1"
   inkscape:version="0.91 r"
   sodipodi:docname="bp.svg"
   inkscape:export-filename="/home/user/Development/Chess Pieces/bn.png"
   inkscape:export-xdpi="90"
   inkscape:export-ydpi="90">
  <defs
     id="defs4" />
  <sodipodi:namedview
     id="base"
     pagecolor="#dfdfdf"
     bordercolor="#666666"
     borderopacity="1.0"
     inkscape:pageopacity="0"
     inkscape:pageshadow="2"
     inkscape:zoom="0.35355339"
     inkscape:cx="-87.113038"
     inkscape:cy="79.580588"
     inkscape:document-units="mm"
     inkscape:current-layer="layer3"
     showgrid="false"
     units="mm"
     showguides="true"
     inkscape:guide-bbox="true"
     inkscape:window-width="1280"
     inkscape:window-height="748"
     inkscape:window-x="0"
     inkscape:window-y="0"
     inkscape:window-maximized="1">
    <inkscape:grid
       type="xygrid"
       id="grid4136" />
  </sodipodi:namedview>
  <metadata
     id="metadata7">
    <rdf:RDF>
      <cc:Work
         rdf:about="">
        <dc:format>image/svg+xml</dc:format>
        <dc:type
           rdf:resource="http://purl.org/dc/dcmitype/StillImage" />
        <dc:title></dc:title>
      </cc:Work>
    </rdf:RDF>
  </metadata>
  <g
     inkscape:groupmode="layer"
     id="layer3"
     inkscape:label="Layer 1"
     style="display:inline">
    <g
       id="g4311"
       transform="translate(13.968474,-16.55798)">
      <g
         transform="matrix(0.97515228,0,0,0.97515228,-8.2456674,-21.138655)"
         id="g4205">
        <g
           id="g4161"
           transform="translate(117.37973,2.31595)">
          <path
             sodipodi:nodetypes="cccccccccc"
             inkscape:connector-curvature="0"
             id="rect6059"
             d="m 175.84937,330.04493 c 17.19835,-0.17568 10.60779,15.42432 13.16828,24.32435 18.56295,11.00489 23.27171,33.65989 20.02643,57.1221 11.04619,4.46486 5.13026,19.12344 3.59804,22.41195 -41.62592,15.15674 -163.853433,13.55639 -202.178903,1.52843 -0.21301,-11.81765 -0.20718,-11.10808 -0.17284,-16.61844 0.0227,-3.64992 3.8255,-5.34286 5.62688,-5.57222 -10.5602299,-27.87064 4.32955,-49.02086 22.05162,-58.22035 2.28157,-9.33899 -6.82852,-23.94306 11.01409,-24.00143 61.255443,-1.9383 41.836986,-0.22954 126.866403,-0.97439 z"
             style="opacity:1;fill:#000000;fill-opacity:1;stroke:none;stroke-width:2.41653538;stroke-linecap:butt;stroke-linejoin:round;stroke-miterlimit:4;stroke-dasharray:none;stroke-opacity:1" />
          <path
             sodipodi:nodetypes="cc"
             inkscape:connector-curvature="0"
             id="path6091"
             d="m 188.71987,355.37873 c -49.31805,6.81952 -99.970446,6.99581 -150.621686,0.48345"
             style="fill:none;fill-rule:evenodd;stroke:#ffffff;stroke-width:2.99143934;stroke-linecap:butt;stroke-linejoin:miter;stroke-miterlimit:4;stroke-dasharray:none;stroke-opacity:1" />
          <path
             sodipodi:nodetypes="cc"
             inkscape:connector-curvature="0"
             id="path6095"
             d="m 15.67833,414.09982 c 61.90102,7.29694 125.99498,6.56776 193.22099,-2.11031"
             style="fill:none;fill-rule:evenodd;stroke:#ffffff;stroke-width:3.73929906;stroke-linecap:butt;stroke-linejoin:miter;stroke-miterlimit:4;stroke-dasharray:none;stroke-opacity:1" />
        </g>
        <path
           style="opacity:1;fill:#000000;fill-opacity:1;stroke:none;stroke-width:1.77165353;stroke-linecap:butt;stroke-linejoin:round;stroke-miterlimit:4;stroke-dasharray:none;stroke-opacity:1"
           d="m 191.43104,231.10534 c 34.0053,-0.74652 43.19181,-0.74652 77.8507,0 12.57542,0.27087 -0.54628,35.67416 3.25,52.94252 4.06653,18.49766 33.20132,52.8422 20.625,52.94253 -31.11559,0.24825 -77.17858,0.24825 -125.35711,0 -12.37539,-0.0637 15.48049,-34.57059 19.5,-52.94253 3.78327,-17.29213 -8.24297,-52.67086 4.13141,-52.94252 z"
           id="rect4166"
           inkscape:connector-curvature="0"
           sodipodi:nodetypes="ssassas" />
      </g>
      <g
         transform="translate(-86.122591,60.811187)"
         id="g4306">
        <path
           style="opacity:1;fill:#000000;fill-opacity:1;stroke:none;stroke-width:3.54330707;stroke-linecap:butt;stroke-linejoin:round;stroke-miterlimit:4;stroke-dasharray:none;stroke-opacity:1"
           d="m 265.0519,127.26244 77.25385,0 c 32.91206,2.25138 43.05895,16.15576 30.84048,26.87092 -17.0439,14.94689 -96.21723,16.36377 -134.04919,4.27491 -15.48022,-4.94654 -24.97309,-19.91869 25.95486,-31.14583 z"
           id="rect4243"
           inkscape:connector-curvature="0"
           sodipodi:nodetypes="ccssc" />
        <path
           style="fill:none;fill-rule:evenodd;stroke:#ffffff;stroke-width:2.91710877;stroke-linecap:butt;stroke-linejoin:miter;stroke-miterlimit:4;stroke-dasharray:none;stroke-opacity:1"
           d="m 231.44766,140.47311 c 62.16096,29.54619 146.2626,2.0569 146.2626,2.0569"
           id="path4246"
           inkscape:connector-curvature="0"
           sodipodi:nodetypes="cc" />
        <circle
           style="opacity:1;fill:#000000;fill-opacity:1;stroke:none;stroke-width:3.54330707;stroke-linecap:butt;stroke-linejoin:round;stroke-miterlimit:4;stroke-dasharray:none;stroke-opacity:1"
           id="path4250"
           cx="302.45959"
           cy="83.645386"
           r="65.638435" />
      </g>
    </g>
  </g>
</svg>
