<?xml version="1.0" encoding="UTF-8" standalone="no"?>
<!-- Created with Inkscape (http://www.inkscape.org/) -->

<svg
   xmlns:dc="http://purl.org/dc/elements/1.1/"
   xmlns:cc="http://creativecommons.org/ns#"
   xmlns:rdf="http://www.w3.org/1999/02/22-rdf-syntax-ns#"
   xmlns:svg="http://www.w3.org/2000/svg"
   xmlns="http://www.w3.org/2000/svg"
   xmlns:sodipodi="http://sodipodi.sourceforge.net/DTD/sodipodi-0.dtd"
   xmlns:inkscape="http://www.inkscape.org/namespaces/inkscape"
   width="130mm"
   height="130mm"
   viewBox="0 0 460.62993 460.62993"
   id="svg2"
   version="1.1"
   inkscape:version="0.91 r"
   sodipodi:docname="bq.svg"
   inkscape:export-filename="/home/user/Desktop/bqHead"
   inkscape:export-xdpi="90"
   inkscape:export-ydpi="90">
  <defs
     id="defs4" />
  <sodipodi:namedview
     id="base"
     pagecolor="#dfdfdf"
     bordercolor="#666666"
     borderopacity="1.0"
     inkscape:pageopacity="0"
     inkscape:pageshadow="2"
     inkscape:zoom="0.70710678"
     inkscape:cx="185.90812"
     inkscape:cy="166.96888"
     inkscape:document-units="mm"
     inkscape:current-layer="layer3"
     showgrid="false"
     units="mm"
     showguides="true"
     inkscape:guide-bbox="true"
     inkscape:window-width="1280"
     inkscape:window-height="748"
     inkscape:window-x="0"
     inkscape:window-y="0"
     inkscape:window-maximized="1">
    <inkscape:grid
       type="xygrid"
       id="grid4136" />
  </sodipodi:namedview>
  <metadata
     id="metadata7">
    <rdf:RDF>
      <cc:Work
         rdf:about="">
        <dc:format>image/svg+xml</dc:format>
        <dc:type
           rdf:resource="http://purl.org/dc/dcmitype/StillImage" />
        <dc:title />
      </cc:Work>
    </rdf:RDF>
  </metadata>
  <g
     inkscape:groupmode="layer"
     id="layer3"
     inkscape:label="Layer 1"
     style="display:inline">
    <path
       inkscape:connector-curvature="0"
       style="opacity:1;fill:#000000;fill-opacity:1;stroke:none;stroke-width:3.5433073;stroke-linecap:butt;stroke-linejoin:round;stroke-miterlimit:4;stroke-dasharray:none;stroke-opacity:1"
       d="m 230.02148,38.59375 c -38.88796,0.742986 -77.53953,35.41349 -40.08398,102.07422 l 2.27539,4.52734 -5.80664,3.40235 c -24.37015,14.10969 -65.29519,18.90242 -97.292969,25.53711 -56.838418,28.66466 -7.051306,100.85695 27.462889,135.54492 l 3.8711,14.46289 c 0.46667,1.74372 0.892,3.46958 1.28711,5.18359 a 122.04142,33.554674 0 0 0 -13.625,15.33985 122.04142,33.554674 0 0 0 17.57812,17.28125 c 0.0365,1.45446 0.0665,2.90989 0.0742,4.37109 0.0755,0.0168 0.15105,0.032 0.22656,0.0488 l 0,1.30664 c -19.79527,6.10666 -31.624999,13.87086 -31.624999,22.08008 0,18.53173 57.259029,32.29492 133.589839,32.29492 76.33087,0 138.20899,-15.02296 138.20899,-33.55469 0,-8.28126 -11.7933,-15.85656 -31.625,-21.70898 l 0,-0.21485 c 0.27587,-0.0768 0.55233,-0.14709 0.82812,-0.22461 0.0957,-1.61573 0.16799,-3.234 0.23633,-4.85156 a 122.04142,33.554674 0 0 0 16.58985,-16.82812 122.04142,33.554674 0 0 0 -13.27735,-15.22071 c 0.48519,-1.82969 1.04578,-3.65038 1.71289,-5.45508 l 3.85352,-14.31835 c 35.10551,-39.34861 88.40982,-98.22017 19.08789,-139.39258 -17.00068,-4.30183 -58.44749,-9.34048 -87.23828,-20.72461 -2.64365,-1.07838 -7.38281,-4.33985 -7.38281,-4.33985 l 2.57812,-5.12695 C 308.03422,71.036163 268.90947,37.850764 230.02148,38.59375 Z"
       id="path4255" />
    <path
       style="fill:none;fill-rule:evenodd;stroke:#ffffff;stroke-width:7.08661461;stroke-linecap:butt;stroke-linejoin:miter;stroke-miterlimit:4;stroke-dasharray:none;stroke-opacity:1"
       d="m 89.958344,177.50158 c -8.732971,23.51009 -27.669399,59.69154 2.806764,70.03484 30.476162,10.3433 39.343272,-25.45641 47.033862,-64.38378"
       id="path4257"
       inkscape:connector-curvature="0"
       sodipodi:nodetypes="czc" />
    <path
       style="fill:none;fill-rule:evenodd;stroke:#ffffff;stroke-width:7.08661461;stroke-linecap:butt;stroke-linejoin:miter;stroke-miterlimit:4;stroke-dasharray:none;stroke-opacity:1"
       d="m 86.427265,176.18316 c 8.57696,11.22729 21.606825,21.61 52.638285,7.6404 10.51156,-4.73204 24.56958,-1.87722 35.82247,3.27708 30.73024,14.07565 64.32446,16.29019 96.99911,0.29213 12.71718,-6.22654 28.08002,-7.40001 40.77013,-4.27256 27.41807,6.7571 46.55767,5.09061 53.30852,-10.60224"
       id="path4265"
       inkscape:connector-curvature="0"
       sodipodi:nodetypes="cssssc" />
    <path
       sodipodi:nodetypes="czc"
       inkscape:connector-curvature="0"
       id="path4267"
       d="m 175.50276,186.60227 c -0.69258,31.88551 1.2993,66.55667 45.66386,65.72947 44.36455,-0.8272 50.39303,-31.31019 50.58147,-63.69281"
       style="fill:none;fill-rule:evenodd;stroke:#ffffff;stroke-width:7.08661461;stroke-linecap:butt;stroke-linejoin:miter;stroke-miterlimit:4;stroke-dasharray:none;stroke-opacity:1" />
    <path
       sodipodi:nodetypes="czc"
       inkscape:connector-curvature="0"
       id="path4269"
       d="m 364.48921,174.86185 c 8.73297,23.5101 24.83133,58.54097 -5.64482,68.88427 -30.47617,10.34331 -34.68671,-22.91505 -45.93072,-60.65794"
       style="fill:none;fill-rule:evenodd;stroke:#ffffff;stroke-width:7.08661461;stroke-linecap:butt;stroke-linejoin:miter;stroke-miterlimit:4;stroke-dasharray:none;stroke-opacity:1" />
    <path
       style="fill:none;fill-rule:evenodd;stroke:#ffffff;stroke-width:7.08661461;stroke-linecap:butt;stroke-linejoin:miter;stroke-miterlimit:4;stroke-dasharray:none;stroke-opacity:1"
       d="m 191.04715,148.45644 c 26.3185,8.86349 54.37168,11.49734 79.3552,-0.10876"
       id="path4271"
       inkscape:connector-curvature="0"
       sodipodi:nodetypes="cc" />
    <path
       sodipodi:nodetypes="cc"
       inkscape:connector-curvature="0"
       id="path6019"
       d="m 121.05788,331.83581 c 90.0219,24.16917 147.99277,12.60038 218.53193,-1.93342"
       style="opacity:1;fill:none;fill-rule:evenodd;stroke:#ffffff;stroke-width:7.08661461;stroke-linecap:butt;stroke-linejoin:miter;stroke-miterlimit:4;stroke-dasharray:none;stroke-opacity:1" />
    <path
       style="opacity:1;fill:none;fill-rule:evenodd;stroke:#ffffff;stroke-width:7.08661461;stroke-linecap:butt;stroke-linejoin:miter;stroke-miterlimit:4;stroke-dasharray:none;stroke-opacity:1"
       d="m 125.70196,370.2832 c 70.2846,18.28995 139.2985,17.48057 209.83774,-0.41288"
       id="path6023"
       inkscape:connector-curvature="0"
       sodipodi:nodetypes="cc" />
    <g
       transform="matrix(2.6801326,0,0,2.6801326,-853.73055,-47.02473)"
       id="g4147">
      <g
         id="g4149"
         transform="translate(378.70713,-81.758509)">
        <path
           sodipodi:nodetypes="cccccccccccccccc"
           inkscape:connector-curvature="0"
           id="path4151"
           d="m -184.87611,235.98456 c -0.0275,-5.19959 -0.51593,-10.25497 -1.98333,-15.73795 l -1.44407,-5.39585 c -12.8778,-12.94263 -31.45458,-39.87917 -10.24726,-50.57442 11.93888,-2.47551 27.20869,-4.26323 36.30158,-9.52778 l 2.16702,-1.26995 -0.84933,-1.68897 c -27.95052,-49.74436 57.68567,-51.74536 30.44162,-0.21676 l -0.96199,1.91333 c 0,0 1.76874,1.21718 2.75513,1.61954 10.7423,4.2476 26.20631,6.12756 32.549534,7.73264 25.865114,15.36209 5.97685,37.32742 -7.121574,52.00901 l -1.43775,5.34302 c -1.88174,5.09051 -1.64733,10.46964 -1.96327,15.80313 -25.42272,7.14576 -51.73909,5.88913 -78.20631,-0.01 z"
           style="opacity:1;fill:#000000;fill-opacity:1;stroke:none;stroke-width:2.41653538;stroke-linecap:butt;stroke-linejoin:round;stroke-miterlimit:4;stroke-dasharray:none;stroke-opacity:1" />
        <path
           sodipodi:nodetypes="czc"
           inkscape:connector-curvature="0"
           id="path4153"
           d="m -198.04858,165.39292 c -3.25841,8.77199 -10.51045,22.41178 0.86069,26.27103 11.37114,3.85925 14.6796,-9.49819 17.54908,-24.02261"
           style="fill:none;fill-rule:evenodd;stroke:#ffffff;stroke-width:1.85136306px;stroke-linecap:butt;stroke-linejoin:miter;stroke-opacity:1" />
        <path
           sodipodi:nodetypes="cssssc"
           inkscape:connector-curvature="0"
           id="path4155"
           d="m -198.61985,164.76108 c 3.2002,4.18908 7.12906,8.34287 18.70739,3.13059 3.92203,-1.7656 9.1673,-0.70042 13.36593,1.22273 11.46594,5.25185 24.00048,6.07813 36.19191,0.109 4.74498,-2.32322 10.4771,-2.76106 15.21198,-1.59416 10.23012,2.52118 15.878942,1.54959 18.397791,-4.30566"
           style="fill:none;fill-rule:evenodd;stroke:#ffffff;stroke-width:1.77165365;stroke-linecap:butt;stroke-linejoin:miter;stroke-miterlimit:4;stroke-dasharray:none;stroke-opacity:1" />
        <path
           style="fill:none;fill-rule:evenodd;stroke:#ffffff;stroke-width:1.85136306px;stroke-linecap:butt;stroke-linejoin:miter;stroke-opacity:1"
           d="m -166.31716,168.92845 c -0.25841,11.89699 0.48479,24.83335 17.03791,24.52471 16.55312,-0.30864 18.80244,-11.68233 18.87275,-23.7648"
           id="path4157"
           inkscape:connector-curvature="0"
           sodipodi:nodetypes="czc" />
        <path
           style="fill:none;fill-rule:evenodd;stroke:#ffffff;stroke-width:1.85136306px;stroke-linecap:butt;stroke-linejoin:miter;stroke-opacity:1"
           d="m -97.365738,164.0582 c 3.25841,8.77199 10.827386,22.33228 -0.54375,26.19153 -11.371142,3.85925 -12.942162,-8.54997 -17.137482,-22.63244"
           id="path4159"
           inkscape:connector-curvature="0"
           sodipodi:nodetypes="czc" />
        <path
           sodipodi:nodetypes="cc"
           inkscape:connector-curvature="0"
           id="path4161"
           d="m -160.18751,153.44243 c 9.81985,3.30711 19.49075,4.33042 28.8125,0"
           style="fill:none;fill-rule:evenodd;stroke:#ffffff;stroke-width:1.77165365;stroke-linecap:butt;stroke-linejoin:miter;stroke-miterlimit:4;stroke-dasharray:none;stroke-opacity:1" />
      </g>
      <path
         style="opacity:1;fill:#000000;fill-opacity:1;stroke:none;stroke-width:2.41653538;stroke-linecap:butt;stroke-linejoin:round;stroke-miterlimit:4;stroke-dasharray:none;stroke-opacity:1"
         d="m 283.52825,162.49907 c 0,6.91448 -23.08781,12.51978 -51.56807,12.51978 -28.48024,0 -49.84449,-5.13523 -49.84449,-12.04971 0,-6.91449 22.46105,-12.98986 50.94131,-12.98986 28.48026,0 50.47125,5.6053 50.47125,12.51979 z"
         id="path4163"
         inkscape:connector-curvature="0"
         sodipodi:nodetypes="sssss" />
      <ellipse
         style="opacity:1;fill:#000000;fill-opacity:1;stroke:none;stroke-width:2.41653538;stroke-linecap:butt;stroke-linejoin:round;stroke-miterlimit:4;stroke-dasharray:none;stroke-opacity:1"
         id="ellipse4165"
         cx="232.77992"
         cy="146.14604"
         rx="45.535603"
         ry="12.519784" />
      <rect
         style="opacity:1;fill:#000000;fill-opacity:1;stroke:none;stroke-width:2.41653538;stroke-linecap:butt;stroke-linejoin:round;stroke-miterlimit:4;stroke-dasharray:none;stroke-opacity:1"
         id="rect4167"
         width="77.812904"
         height="9.3137283"
         x="193.91553"
         y="150.02498"
         ry="0" />
      <path
         sodipodi:nodetypes="cc"
         inkscape:connector-curvature="0"
         id="path4169"
         d="m 192.07572,141.35888 c 33.5886,9.0179 55.21845,4.7014 81.53773,-0.72139"
         style="opacity:1;fill:none;fill-rule:evenodd;stroke:#ffffff;stroke-width:1.77271271px;stroke-linecap:butt;stroke-linejoin:miter;stroke-opacity:1" />
      <path
         style="opacity:1;fill:none;fill-rule:evenodd;stroke:#ffffff;stroke-width:1.77271271px;stroke-linecap:butt;stroke-linejoin:miter;stroke-opacity:1"
         d="m 193.8085,155.70421 c 26.2243,6.82427 51.97448,6.52228 78.29379,-0.15405"
         id="path4171"
         inkscape:connector-curvature="0"
         sodipodi:nodetypes="cc" />
    </g>
  </g>
</svg>
