<?xml version="1.0" encoding="UTF-8" standalone="no"?>
<!-- Created with Inkscape (http://www.inkscape.org/) -->

<svg
   xmlns:dc="http://purl.org/dc/elements/1.1/"
   xmlns:cc="http://creativecommons.org/ns#"
   xmlns:rdf="http://www.w3.org/1999/02/22-rdf-syntax-ns#"
   xmlns:svg="http://www.w3.org/2000/svg"
   xmlns="http://www.w3.org/2000/svg"
   xmlns:sodipodi="http://sodipodi.sourceforge.net/DTD/sodipodi-0.dtd"
   xmlns:inkscape="http://www.inkscape.org/namespaces/inkscape"
   width="130mm"
   height="130mm"
   viewBox="0 0 460.62993 460.62993"
   id="svg2"
   version="1.1"
   inkscape:version="0.91 r"
   sodipodi:docname="wk.svg"
   inkscape:export-filename="/home/user/Development/Chess Pieces/bn.png"
   inkscape:export-xdpi="90"
   inkscape:export-ydpi="90">
  <defs
     id="defs4" />
  <sodipodi:namedview
     id="base"
     pagecolor="#dfdfdf"
     bordercolor="#666666"
     borderopacity="1.0"
     inkscape:pageopacity="0"
     inkscape:pageshadow="2"
     inkscape:zoom="0.70710678"
     inkscape:cx="17.146997"
     inkscape:cy="190.069"
     inkscape:document-units="mm"
     inkscape:current-layer="layer3"
     showgrid="false"
     units="mm"
     showguides="true"
     inkscape:guide-bbox="true"
     inkscape:window-width="1280"
     inkscape:window-height="748"
     inkscape:window-x="0"
     inkscape:window-y="0"
     inkscape:window-maximized="1">
    <inkscape:grid
       type="xygrid"
       id="grid4136" />
  </sodipodi:namedview>
  <metadata
     id="metadata7">
    <rdf:RDF>
      <cc:Work
         rdf:about="">
        <dc:format>image/svg+xml</dc:format>
        <dc:type
           rdf:resource="http://purl.org/dc/dcmitype/StillImage" />
        <dc:title></dc:title>
      </cc:Work>
    </rdf:RDF>
  </metadata>
  <g
     inkscape:groupmode="layer"
     id="layer3"
     inkscape:label="Layer 1"
     style="display:inline">
    <g
       id="g4825"
       transform="translate(-496.38899,2.8284273)"
       style="fill:#ffffff">
      <path
         sodipodi:nodetypes="sssss"
         inkscape:connector-curvature="0"
         id="ellipse6021"
         d="m 349.07463,419.31484 c 0,16.74993 -55.92889,30.32845 -124.92069,30.32845 -68.99175,0 -120.74541,-12.4398 -120.74541,-29.18973 0,-16.74995 54.4106,-31.46719 123.4024,-31.46719 68.99179,0 122.2637,13.57852 122.2637,30.32847 z"
         style="opacity:1;fill:#ffffff;fill-opacity:1;stroke:none;stroke-width:2.41653538;stroke-linecap:butt;stroke-linejoin:round;stroke-miterlimit:4;stroke-dasharray:none;stroke-opacity:1" />
      <path
         sodipodi:nodetypes="ccccc"
         inkscape:connector-curvature="0"
         id="rect5944"
         d="M 80.766121,183.3095 C 167.57893,144.12908 266.76723,139.85046 379.86383,185.58689 L 323.02107,367.81657 C 249.34175,388.46324 187.77791,380.03278 128.2388,366.74299 Z"
         style="opacity:1;fill:#ffffff;fill-opacity:1;stroke:none;stroke-width:2.41653538;stroke-linecap:butt;stroke-linejoin:round;stroke-miterlimit:4;stroke-dasharray:none;stroke-opacity:1" />
      <path
         sodipodi:nodetypes="cc"
         inkscape:connector-curvature="0"
         id="path5966"
         d="m 83.204496,185.36193 c 137.555164,41.23076 293.243984,2.48306 294.096054,2.27775"
         style="opacity:1;fill:#ffffff;fill-rule:evenodd;stroke:#000000;stroke-width:7.08661461;stroke-linecap:butt;stroke-linejoin:miter;stroke-miterlimit:4;stroke-dasharray:none;stroke-opacity:1" />
      <circle
         r="61.110069"
         cy="72.096725"
         cx="230.31497"
         id="path5971"
         style="opacity:1;fill:#ffffff;fill-opacity:1;stroke:none;stroke-width:2.41653538;stroke-linecap:butt;stroke-linejoin:round;stroke-miterlimit:4;stroke-dasharray:none;stroke-opacity:1" />
      <path
         sodipodi:nodetypes="ccccc"
         inkscape:connector-curvature="0"
         id="rect5968"
         d="m 198.84998,119.12207 64.3027,0 c 1.196,17.39881 31.22368,11.68978 31.88351,41.9086 l -128.82884,0 c -5.28694,-23.5436 25.12007,-23.38052 32.64263,-41.9086 z"
         style="opacity:1;fill:#ffffff;fill-opacity:1;stroke:none;stroke-width:2.41653538;stroke-linecap:butt;stroke-linejoin:round;stroke-miterlimit:4;stroke-dasharray:none;stroke-opacity:1" />
      <ellipse
         ry="30.328459"
         rx="110.30738"
         cy="379.70056"
         cx="226.13972"
         id="path6003"
         style="opacity:1;fill:#ffffff;fill-opacity:1;stroke:none;stroke-width:2.41653538;stroke-linecap:butt;stroke-linejoin:round;stroke-miterlimit:4;stroke-dasharray:none;stroke-opacity:1" />
      <rect
         ry="0"
         y="389.09705"
         x="131.99295"
         height="22.561972"
         width="188.4973"
         id="rect6009"
         style="opacity:1;fill:#ffffff;fill-opacity:1;stroke:none;stroke-width:2.41653538;stroke-linecap:butt;stroke-linejoin:round;stroke-miterlimit:4;stroke-dasharray:none;stroke-opacity:1" />
      <path
         style="opacity:1;fill:#ffffff;fill-rule:evenodd;stroke:#000000;stroke-width:7.08661461;stroke-linecap:butt;stroke-linejoin:miter;stroke-miterlimit:4;stroke-dasharray:none;stroke-opacity:1"
         d="m 127.12988,369.2602 c 81.36645,21.84534 133.59525,12.84008 197.3522,-0.29632"
         id="path6019"
         inkscape:connector-curvature="0"
         sodipodi:nodetypes="cc" />
      <path
         sodipodi:nodetypes="cc"
         inkscape:connector-curvature="0"
         id="path6023"
         d="m 131.11497,403.91535 c 63.52686,16.5314 126.52391,15.3579 190.28093,-0.81512"
         style="opacity:1;fill:#ffffff;fill-rule:evenodd;stroke:#000000;stroke-width:7.08661461;stroke-linecap:butt;stroke-linejoin:miter;stroke-miterlimit:4;stroke-dasharray:none;stroke-opacity:1" />
      <path
         sodipodi:nodetypes="cc"
         inkscape:connector-curvature="0"
         id="path6114"
         d="m 167.3222,171.32053 c 43.88379,13.55417 85.22706,9.73002 125.20947,0"
         style="fill:#ffffff;fill-rule:evenodd;stroke:#000000;stroke-width:7.08661461;stroke-linecap:butt;stroke-linejoin:miter;stroke-miterlimit:4;stroke-dasharray:none;stroke-opacity:1" />
    </g>
    <path
       inkscape:connector-curvature="0"
       style="opacity:1;fill:#ffffff;fill-opacity:1;stroke:#000000;stroke-width:7.08661459;stroke-linecap:butt;stroke-linejoin:round;stroke-miterlimit:4;stroke-dasharray:none;stroke-opacity:1"
       d="m 230.31498,10.986848 a 61.110049,61.110049 0 0 0 -61.11133,61.111328 61.110049,61.110049 0 0 0 27.50782,50.988284 c -9.28065,13.77818 -32.34159,15.98531 -31.0625,34.20898 -29.52915,4.97138 -57.80767,13.7941 -84.88282,26.01367 l 47.25586,182.59961 a 110.30735,30.328453 0 0 0 -12.18945,13.79297 110.30735,30.328453 0 0 0 16.16016,15.73242 l 0,5.0625 c -17.89184,5.51951 -28.58399,12.53716 -28.58399,19.95703 0,16.74993 51.7524,29.18946 120.74414,29.18946 68.9918,0 124.92188,-13.5782 124.92188,-30.32813 0,-7.48484 -10.65986,-14.33142 -28.58399,-19.62109 l 0,-4.33984 a 110.30735,30.328453 0 0 0 15.95508,-15.65235 110.30735,30.328453 0 0 0 -12.73242,-14.10937 l 56.15039,-180.00586 c -29.21502,-11.8146 -57.49949,-20.28338 -84.88477,-25.6836 -1.27091,-26.48069 -25.88085,-24.2751 -30.94335,-36.88476 A 61.110049,61.110049 0 0 0 291.42436,72.098176 61.110049,61.110049 0 0 0 230.31498,10.986848 Z"
       id="path4839" />
    <path
       sodipodi:nodetypes="cc"
       inkscape:connector-curvature="0"
       id="path4843"
       d="m 83.20413,185.36245 c 137.55516,41.23076 293.24398,2.48306 294.09605,2.27775"
       style="opacity:1;fill:none;fill-rule:evenodd;stroke:#000000;stroke-width:7.08661461;stroke-linecap:butt;stroke-linejoin:miter;stroke-miterlimit:4;stroke-dasharray:none;stroke-opacity:1" />
    <g
       id="g4901"
       transform="translate(-3.7e-4,5.2036461e-4)">
      <g
         id="g4892">
        <g
           id="g4884">
          <g
             id="g4877">
            <g
               id="g4871">
              <g
                 id="g4866">
                <g
                   id="g4862">
                  <g
                     id="g4859" />
                </g>
              </g>
            </g>
          </g>
        </g>
      </g>
    </g>
    <path
       style="opacity:1;fill:none;fill-rule:evenodd;stroke:#000000;stroke-width:7.08661461;stroke-linecap:butt;stroke-linejoin:miter;stroke-miterlimit:4;stroke-dasharray:none;stroke-opacity:1"
       d="m 127.12951,369.26072 c 81.36645,21.84534 133.59525,12.84008 197.3522,-0.29632"
       id="path4853"
       inkscape:connector-curvature="0"
       sodipodi:nodetypes="cc" />
    <path
       sodipodi:nodetypes="cc"
       inkscape:connector-curvature="0"
       id="path4855"
       d="m 131.1146,403.91587 c 63.52686,16.5314 126.52391,15.3579 190.28093,-0.81512"
       style="opacity:1;fill:none;fill-rule:evenodd;stroke:#000000;stroke-width:7.08661461;stroke-linecap:butt;stroke-linejoin:miter;stroke-miterlimit:4;stroke-dasharray:none;stroke-opacity:1" />
    <path
       sodipodi:nodetypes="cc"
       inkscape:connector-curvature="0"
       id="path4857"
       d="m 167.32183,171.32105 c 43.88379,13.55417 85.22706,9.73002 125.20947,0"
       style="fill:none;fill-rule:evenodd;stroke:#000000;stroke-width:7.08661461;stroke-linecap:butt;stroke-linejoin:miter;stroke-miterlimit:4;stroke-dasharray:none;stroke-opacity:1" />
  </g>
</svg>
