<?xml version="1.0" encoding="UTF-8" standalone="no"?>
<!-- Created with Inkscape (http://www.inkscape.org/) -->

<svg
   xmlns:dc="http://purl.org/dc/elements/1.1/"
   xmlns:cc="http://creativecommons.org/ns#"
   xmlns:rdf="http://www.w3.org/1999/02/22-rdf-syntax-ns#"
   xmlns:svg="http://www.w3.org/2000/svg"
   xmlns="http://www.w3.org/2000/svg"
   xmlns:sodipodi="http://sodipodi.sourceforge.net/DTD/sodipodi-0.dtd"
   xmlns:inkscape="http://www.inkscape.org/namespaces/inkscape"
   width="130mm"
   height="130mm"
   viewBox="0 0 460.62993 460.62993"
   id="svg2"
   version="1.1"
   inkscape:version="0.91 r"
   sodipodi:docname="wk.svg"
   inkscape:export-filename="/home/user/Development/Chess Pieces/bn.png"
   inkscape:export-xdpi="90"
   inkscape:export-ydpi="90">
  <defs
     id="defs4" />
  <sodipodi:namedview
     id="base"
     pagecolor="#dfdfdf"
     bordercolor="#666666"
     borderopacity="1.0"
     inkscape:pageopacity="0"
     inkscape:pageshadow="2"
     inkscape:zoom="0.70710678"
     inkscape:cx="358.38314"
     inkscape:cy="259.39063"
     inkscape:document-units="mm"
     inkscape:current-layer="layer3"
     showgrid="false"
     units="mm"
     showguides="true"
     inkscape:guide-bbox="true"
     inkscape:window-width="1280"
     inkscape:window-height="748"
     inkscape:window-x="0"
     inkscape:window-y="0"
     inkscape:window-maximized="1">
    <inkscape:grid
       type="xygrid"
       id="grid4136" />
  </sodipodi:namedview>
  <metadata
     id="metadata7">
    <rdf:RDF>
      <cc:Work
         rdf:about="">
        <dc:format>image/svg+xml</dc:format>
        <dc:type
           rdf:resource="http://purl.org/dc/dcmitype/StillImage" />
        <dc:title></dc:title>
      </cc:Work>
    </rdf:RDF>
  </metadata>
  <g
     inkscape:groupmode="layer"
     id="layer3"
     inkscape:label="Layer 1"
     style="display:inline">
    <path
       style="opacity:1;fill:#ffffff;fill-opacity:1;stroke:none;stroke-width:2.41653538;stroke-linecap:butt;stroke-linejoin:round;stroke-miterlimit:4;stroke-dasharray:none;stroke-opacity:1"
       d="m 289.93152,341.38263 c 16.29692,-0.16647 10.0518,14.61587 12.47808,23.04941 17.58999,10.42808 22.05195,31.89564 18.97677,54.1281 10.46721,4.23084 4.86136,18.12111 3.40945,21.23725 -39.44414,14.36232 -155.26522,12.84585 -191.58189,1.44832 -0.20185,-11.19824 -0.19632,-10.52586 -0.16378,-15.7474 0.0215,-3.45861 3.62499,-5.06282 5.33195,-5.28016 -10.00673,-26.40982 4.10262,-46.45148 20.8958,-55.16878 2.16199,-8.8495 -6.4706,-22.68811 10.4368,-22.74342 58.0448,-1.83671 39.64414,-0.21751 120.21682,-0.92332 z"
       id="rect6059"
       inkscape:connector-curvature="0"
       sodipodi:nodetypes="cccccccccc" />
    <path
       style="fill:none;fill-rule:evenodd;stroke:#000000;stroke-width:2.83464599;stroke-linecap:butt;stroke-linejoin:miter;stroke-miterlimit:4;stroke-dasharray:none;stroke-opacity:1"
       d="m 302.12743,365.38858 c -46.73309,6.46208 -94.73059,6.62913 -142.727,0.45811"
       id="path6091"
       inkscape:connector-curvature="0"
       sodipodi:nodetypes="cc" />
    <path
       style="fill:none;fill-rule:evenodd;stroke:#000000;stroke-width:3.5433073;stroke-linecap:butt;stroke-linejoin:miter;stroke-miterlimit:4;stroke-dasharray:none;stroke-opacity:1"
       d="m 138.1557,421.03186 c 58.65653,6.91448 119.39107,6.22352 183.09349,-1.9997"
       id="path6095"
       inkscape:connector-curvature="0"
       sodipodi:nodetypes="cc" />
    <path
       style="opacity:1;fill:#ffffff;fill-opacity:1;stroke:none;stroke-width:1.77165353;stroke-linecap:butt;stroke-linejoin:round;stroke-miterlimit:4;stroke-dasharray:none;stroke-opacity:1"
       d="m 193.46911,245.4343 c 32.22294,-0.70739 40.92795,-0.70739 73.77023,0 11.91629,0.25667 -0.51765,33.80433 3.07965,50.16759 3.85339,17.52812 31.46111,50.07253 19.54396,50.1676 -29.48469,0.23524 -73.13333,0.23524 -118.78663,0 -11.72675,-0.0604 14.66909,-32.75861 18.47792,-50.1676 3.58498,-16.38578 -7.81092,-49.91017 3.91487,-50.16759 z"
       id="rect4166"
       inkscape:connector-curvature="0"
       sodipodi:nodetypes="ssassas" />
    <path
       style="opacity:1;fill:#ffffff;fill-opacity:1;stroke:none;stroke-width:2.41653538;stroke-linecap:butt;stroke-linejoin:round;stroke-miterlimit:4;stroke-dasharray:none;stroke-opacity:1"
       d="m 298.90123,243.9778 c 0,9.57955 -31.98662,17.34532 -71.44412,17.34532 -39.45748,0 -69.05622,-7.11452 -69.05622,-16.69407 0,-9.57956 31.11829,-17.99658 70.57579,-17.99658 39.4575,0 69.92455,7.76577 69.92455,17.34533 z"
       id="ellipse6021"
       inkscape:connector-curvature="0"
       sodipodi:nodetypes="sssss" />
    <path
       style="opacity:1;fill:#ffffff;fill-opacity:1;stroke:none;stroke-width:2.41653538;stroke-linecap:butt;stroke-linejoin:round;stroke-miterlimit:4;stroke-dasharray:none;stroke-opacity:1"
       d="m 145.45134,109.00261 c 49.64962,-22.407905 106.37698,-24.854916 171.05872,1.30247 l -32.50928,104.22004 c -42.13837,11.80816 -77.3477,6.98665 -111.39906,-0.61399 z"
       id="rect5944"
       inkscape:connector-curvature="0"
       sodipodi:nodetypes="ccccc" />
    <path
       style="opacity:1;fill:none;fill-rule:evenodd;stroke:#ffffff;stroke-width:2.83464575;stroke-linecap:butt;stroke-linejoin:miter;stroke-miterlimit:4;stroke-dasharray:none;stroke-opacity:1"
       d="m 146.23823,109.64025 c 78.66997,23.58053 168.86195,1.50131 169.34927,1.38389"
       id="path5966"
       inkscape:connector-curvature="0"
       sodipodi:nodetypes="cc" />
    <circle
       style="opacity:1;fill:#ffffff;fill-opacity:1;stroke:none;stroke-width:2.41653538;stroke-linecap:butt;stroke-linejoin:round;stroke-miterlimit:4;stroke-dasharray:none;stroke-opacity:1"
       id="path5971"
       cx="230.9807"
       cy="45.398258"
       r="34.949818" />
    <path
       style="opacity:1;fill:#ffffff;fill-opacity:1;stroke:none;stroke-width:2.41653538;stroke-linecap:butt;stroke-linejoin:round;stroke-miterlimit:4;stroke-dasharray:none;stroke-opacity:1"
       d="m 212.98537,72.292801 36.77573,0 c 0.68402,9.950653 17.85732,6.685566 18.23468,23.96819 l -73.67925,0 c -3.02368,-13.464957 14.36657,-13.371688 18.66884,-23.96819 z"
       id="rect5968"
       inkscape:connector-curvature="0"
       sodipodi:nodetypes="ccccc" />
    <ellipse
       style="opacity:1;fill:#ffffff;fill-opacity:1;stroke:none;stroke-width:2.41653538;stroke-linecap:butt;stroke-linejoin:round;stroke-miterlimit:4;stroke-dasharray:none;stroke-opacity:1"
       id="path6003"
       cx="228.5928"
       cy="221.32176"
       rx="63.08654"
       ry="17.345325" />
    <rect
       style="opacity:1;fill:#ffffff;fill-opacity:1;stroke:none;stroke-width:2.41653538;stroke-linecap:butt;stroke-linejoin:round;stroke-miterlimit:4;stroke-dasharray:none;stroke-opacity:1"
       id="rect6009"
       width="107.80459"
       height="12.903549"
       x="174.74878"
       y="226.69577"
       ry="0" />
    <path
       style="opacity:1;fill:none;fill-rule:evenodd;stroke:#000000;stroke-width:2.83464575;stroke-linecap:butt;stroke-linejoin:miter;stroke-miterlimit:4;stroke-dasharray:none;stroke-opacity:1"
       d="m 188.63409,259.26969 c 33.50999,7.71796 55.91627,8.66804 83.35964,-0.74401"
       id="path6017"
       inkscape:connector-curvature="0"
       sodipodi:nodetypes="cc" />
    <path
       sodipodi:nodetypes="cc"
       inkscape:connector-curvature="0"
       id="path6019"
       d="m 172.19985,214.68948 c 46.53476,12.4937 76.50148,6.51347 112.96508,-0.99944"
       style="opacity:1;fill:none;fill-rule:evenodd;stroke:#000000;stroke-width:2.83464575;stroke-linecap:butt;stroke-linejoin:miter;stroke-miterlimit:4;stroke-dasharray:none;stroke-opacity:1" />
    <path
       style="opacity:1;fill:none;fill-rule:evenodd;stroke:#000000;stroke-width:2.83464575;stroke-linecap:butt;stroke-linejoin:miter;stroke-miterlimit:4;stroke-dasharray:none;stroke-opacity:1"
       d="m 174.6005,234.56398 c 36.33202,9.45457 72.00717,9.03618 108.47082,-0.21343"
       id="path6023"
       inkscape:connector-curvature="0"
       sodipodi:nodetypes="cc" />
    <path
       style="fill:none;fill-rule:evenodd;stroke:#000000;stroke-width:2.83464575;stroke-linecap:butt;stroke-linejoin:miter;stroke-miterlimit:4;stroke-dasharray:none;stroke-opacity:1"
       d="m 194.95413,102.14592 c 25.09783,7.75185 48.74271,5.56476 71.60928,0"
       id="path6114"
       inkscape:connector-curvature="0"
       sodipodi:nodetypes="cc" />
  </g>
</svg>
