<?xml version="1.0" encoding="UTF-8" standalone="no"?>
<!-- Created with Inkscape (http://www.inkscape.org/) -->

<svg
   xmlns:dc="http://purl.org/dc/elements/1.1/"
   xmlns:cc="http://creativecommons.org/ns#"
   xmlns:rdf="http://www.w3.org/1999/02/22-rdf-syntax-ns#"
   xmlns:svg="http://www.w3.org/2000/svg"
   xmlns="http://www.w3.org/2000/svg"
   xmlns:sodipodi="http://sodipodi.sourceforge.net/DTD/sodipodi-0.dtd"
   xmlns:inkscape="http://www.inkscape.org/namespaces/inkscape"
   width="130mm"
   height="130mm"
   viewBox="0 0 460.62993 460.62993"
   id="svg2"
   version="1.1"
   inkscape:version="0.91 r"
   sodipodi:docname="wn.svg"
   inkscape:export-filename="/home/user/Development/Chess Pieces/bn.png"
   inkscape:export-xdpi="90"
   inkscape:export-ydpi="90">
  <defs
     id="defs4" />
  <sodipodi:namedview
     id="base"
     pagecolor="#dfdfdf"
     bordercolor="#666666"
     borderopacity="1.0"
     inkscape:pageopacity="0"
     inkscape:pageshadow="2"
     inkscape:zoom="2.8284271"
     inkscape:cx="193.0056"
     inkscape:cy="127.64027"
     inkscape:document-units="mm"
     inkscape:current-layer="layer2"
     showgrid="false"
     units="mm"
     showguides="true"
     inkscape:guide-bbox="true"
     inkscape:window-width="1280"
     inkscape:window-height="748"
     inkscape:window-x="0"
     inkscape:window-y="0"
     inkscape:window-maximized="1">
    <inkscape:grid
       type="xygrid"
       id="grid4136" />
  </sodipodi:namedview>
  <metadata
     id="metadata7">
    <rdf:RDF>
      <cc:Work
         rdf:about="">
        <dc:format>image/svg+xml</dc:format>
        <dc:type
           rdf:resource="http://purl.org/dc/dcmitype/StillImage" />
        <dc:title />
      </cc:Work>
    </rdf:RDF>
  </metadata>
  <g
     inkscape:groupmode="layer"
     id="layer2"
     inkscape:label="Layer 1"
     style="display:inline">
    <path
       style="opacity:1;fill:#ffffff;fill-opacity:1;stroke:none;stroke-width:2.41653538;stroke-linecap:butt;stroke-linejoin:round;stroke-miterlimit:4;stroke-dasharray:none;stroke-opacity:1"
       d="m 264.22887,165.54369 c -28.94024,68.92804 -3.99026,119.66594 24.46893,158.01735 18.3902,-0.18786 11.34291,16.49323 14.08085,26.01003 19.84936,11.76753 24.88444,35.99252 21.41426,61.08067 11.81169,4.77427 5.48579,20.44869 3.84739,23.9651 -44.51061,16.2071 -175.20849,14.49585 -216.18992,1.63435 -0.22777,-12.63662 -0.22154,-11.87787 -0.18482,-17.7701 0.0243,-3.90286 4.09061,-5.71312 6.01682,-5.95838 -11.29205,-29.80208 4.62959,-52.41801 23.5798,-62.25502 2.43969,-9.98619 -7.30173,-25.60232 11.77737,-25.66474 34.60225,-31.95959 48.0053,-91.71245 34.13444,-158.4827 53.28799,-0.002 57.54786,-0.2775 77.05287,-0.57531 z"
       id="rect6059"
       inkscape:connector-curvature="0"
       sodipodi:nodetypes="ccccccccccccc" />
    <path
       style="fill:none;fill-rule:evenodd;stroke:#000000;stroke-width:2.83464584;stroke-linecap:butt;stroke-linejoin:miter;stroke-opacity:1;stroke-miterlimit:4;stroke-dasharray:none"
       d="m 302.83828,350.08338 c -52.73579,7.29211 -107.46548,7.66965 -161.62686,0.70599"
       id="path6091"
       inkscape:connector-curvature="0"
       sodipodi:nodetypes="cc" />
    <path
       style="fill:none;fill-rule:evenodd;stroke:#000000;stroke-width:2.83464584;stroke-linecap:butt;stroke-linejoin:miter;stroke-opacity:1;stroke-miterlimit:4;stroke-dasharray:none"
       d="m 117.61593,413.06289 c 66.19076,7.80262 134.72644,7.40096 206.61122,-1.8785"
       id="path6095"
       inkscape:connector-curvature="0"
       sodipodi:nodetypes="cc" />
    <path
       style="opacity:1;fill:#ffffff;fill-opacity:1;stroke:none;stroke-width:2.83464575;stroke-linejoin:round;stroke-miterlimit:4;stroke-dasharray:none;stroke-opacity:1"
       d="M 137.81626,54.245144 C 182.99795,-1.3867382 275.18343,17.465242 353.22741,17.027367 l 0.80908,15.094041 -40.20357,27.946818 c 9.11518,42.664064 19.5187,86.898874 31.3387,123.251724 -2.70119,15.04112 -3.11408,27.71208 -16.75607,37.00382 -18.33246,-16.9591 -20.48444,-27.10701 -12.3385,6.94242 l -29.59892,9.09997 c -19.7936,-20.40885 -13.672,-5.75598 -9.84383,5.794 17.04643,15.05109 35.81094,29.24312 44.63436,48.40568 2.45139,15.89514 0.19073,29.77079 -2.2924,43.55118 l -190.44267,-1.28631 c -40.522006,-55.92032 -15.0633,-27.83378 -1.49337,-72.31623 7.03411,-55.55522 -48.058769,-154.61542 10.77604,-206.269336 z"
       id="rect5051"
       inkscape:connector-curvature="0"
       sodipodi:nodetypes="cccccccccccccc" />
    <path
       style="opacity:1;fill:#000000;fill-opacity:1;stroke:none;stroke-width:2.83464575;stroke-linejoin:round;stroke-miterlimit:4;stroke-dasharray:none;stroke-opacity:1"
       d="M 205.95882,37.528321 C 105.73048,105.87565 190.49571,249.36065 137.26291,324.09401 161.86104,223.22296 103.49049,71.957397 205.95882,37.528321 Z"
       id="rect5080"
       inkscape:connector-curvature="0"
       sodipodi:nodetypes="ccc" />
    <path
       style="opacity:1;fill:#000000;fill-opacity:1;stroke:none;stroke-width:2.83464575;stroke-linejoin:round;stroke-miterlimit:4;stroke-dasharray:none;stroke-opacity:1"
       d="m 204.78869,62.937383 -1.48329,3.506022 c -33.47728,41.154725 -54.66895,81.369945 40.29613,106.032085 -1.1686,2.51966 -4.71128,4.32637 -12.65252,4.81219 -39.66849,-5.32851 -104.90278,-49.78591 -26.16032,-114.350297 z"
       id="rect5083"
       inkscape:connector-curvature="0"
       sodipodi:nodetypes="ccccc" />
    <path
       style="opacity:1;fill:none;fill-rule:evenodd;stroke:#000000;stroke-width:5.21380186;stroke-linecap:butt;stroke-linejoin:round;stroke-miterlimit:4;stroke-dasharray:none;stroke-opacity:1"
       d="m 324.96692,109.3278 c -33.44954,8.15768 -31.56857,-25.884242 -6.96063,-29.844947"
       id="path5088"
       inkscape:connector-curvature="0"
       sodipodi:nodetypes="cc" />
    <path
       style="opacity:1;fill:#000000;fill-opacity:1;stroke:none;stroke-width:2.83464575;stroke-linejoin:round;stroke-miterlimit:4;stroke-dasharray:none;stroke-opacity:1"
       d="m 167.43691,175.97832 c 28.1638,12.64065 42.89343,18.184 64.5189,29.94029 1.50559,0.98751 2.32541,2.06074 0.97269,3.40552 -26.72547,-7.02755 -47.73901,-12.15949 -67.97073,-30.67599 -0.17433,-1.47369 -0.3268,-2.93461 2.47914,-2.66982 z"
       id="rect5090"
       inkscape:connector-curvature="0"
       sodipodi:nodetypes="ccccc" />
    <path
       style="opacity:1;fill:#000000;fill-opacity:1;stroke:none;stroke-width:2.83464575;stroke-linejoin:round;stroke-miterlimit:4;stroke-dasharray:none;stroke-opacity:1"
       d="m 136.92444,122.58162 c 0,1.52716 -7.33585,1.52561 -13.44451,1.52561 -6.10868,0 -10.48864,-1.14266 -10.48864,-2.66982 0,-1.52718 4.47531,-1.33492 10.58398,-1.33492 6.10868,0 13.34917,0.95195 13.34917,2.47913 z"
       id="path5095"
       inkscape:connector-curvature="0"
       sodipodi:nodetypes="sssss" />
    <path
       sodipodi:nodetypes="sssss"
       inkscape:connector-curvature="0"
       id="path5098"
       d="m 139.43693,99.642612 c -0.31069,1.495228 -7.49281,0.0013 -13.47372,-1.241478 -5.98093,-1.24275 -10.03683,-3.252574 -9.72614,-4.747801 0.31069,-1.495249 4.6533,-0.396537 10.63421,0.846213 5.98093,1.242772 12.87634,3.647839 12.56565,5.143066 z"
       style="opacity:1;fill:#000000;fill-opacity:1;stroke:none;stroke-width:2.83464575;stroke-linejoin:round;stroke-miterlimit:4;stroke-dasharray:none;stroke-opacity:1" />
    <path
       style="opacity:1;fill:#000000;fill-opacity:1;stroke:none;stroke-width:2.83464575;stroke-linejoin:round;stroke-miterlimit:4;stroke-dasharray:none;stroke-opacity:1"
       d="m 138.00321,148.06771 c 0,1.52716 -7.33585,1.5256 -13.4445,1.5256 -6.10868,0 -10.48864,-1.14266 -10.48864,-2.66982 0,-1.52718 4.4753,-1.33492 10.58398,-1.33492 6.10868,0 13.34916,0.95196 13.34916,2.47914 z"
       id="path5102"
       inkscape:connector-curvature="0"
       sodipodi:nodetypes="sssss" />
    <path
       style="opacity:1;fill:#000000;fill-opacity:1;stroke:none;stroke-width:2.83464575;stroke-linejoin:round;stroke-miterlimit:4;stroke-dasharray:none;stroke-opacity:1"
       d="m 137.88036,172.72814 c 0.0678,1.52565 -5.73307,1.78197 -10.56348,1.99669 -4.83044,0.21467 -8.34461,-0.77286 -8.41245,-2.29851 -0.0678,-1.52567 3.47957,-1.49091 8.31001,-1.70563 4.83043,-0.21468 10.59811,0.48178 10.66592,2.00745 z"
       id="path5104"
       inkscape:connector-curvature="0"
       sodipodi:nodetypes="sssss" />
    <path
       sodipodi:nodetypes="sssss"
       inkscape:connector-curvature="0"
       id="path5100"
       d="m 142.33031,196.46122 c 0.0677,1.52565 -5.73306,1.78196 -10.56348,1.99668 -4.83044,0.21468 -8.34461,-0.77285 -8.41245,-2.2985 -0.0677,-1.52567 3.47957,-1.49091 8.31001,-1.70563 4.83044,-0.21468 10.59811,0.48178 10.66592,2.00745 z"
       style="opacity:1;fill:#000000;fill-opacity:1;stroke:none;stroke-width:2.83464575;stroke-linejoin:round;stroke-miterlimit:4;stroke-dasharray:none;stroke-opacity:1" />
    <path
       style="opacity:1;fill:#000000;fill-opacity:1;stroke:none;stroke-width:2.83464575;stroke-linejoin:round;stroke-miterlimit:4;stroke-dasharray:none;stroke-opacity:1"
       d="m 142.59578,223.85928 c -0.006,0.97092 -4.03792,0.9109 -7.39486,0.86171 -3.35693,-0.0492 -5.75894,-0.81092 -5.75236,-1.78188 0.006,-0.97096 2.46511,-0.81269 5.82207,-0.76352 3.35694,0.0492 7.33177,0.71273 7.32515,1.68369 z"
       id="path5106"
       inkscape:connector-curvature="0"
       sodipodi:nodetypes="sssss" />
    <path
       sodipodi:nodetypes="sssss"
       inkscape:connector-curvature="0"
       id="path5108"
       d="m 142.93102,251.0091 c -0.19353,0.95146 -4.1378,0.11543 -7.42228,-0.5798 -3.28451,-0.69533 -5.49466,-1.90574 -5.30104,-2.85724 0.19353,-0.95151 2.57553,-0.3223 5.86006,0.37302 3.28451,0.69531 7.0569,2.11254 6.86326,3.06402 z"
       style="opacity:1;fill:#000000;fill-opacity:1;stroke:none;stroke-width:2.83464575;stroke-linejoin:round;stroke-miterlimit:4;stroke-dasharray:none;stroke-opacity:1" />
    <path
       style="opacity:1;fill:#000000;fill-opacity:1;stroke:none;stroke-width:2.83464575;stroke-linejoin:round;stroke-miterlimit:4;stroke-dasharray:none;stroke-opacity:1"
       d="m 142.60946,281.54295 c -0.81558,1.30679 -6.04844,-2.23099 -10.4065,-5.17553 -4.35808,-2.94478 -6.87254,-6.03388 -6.05685,-7.34073 0.81557,-1.30691 3.90577,1.01504 8.26387,3.9598 4.35809,2.94474 9.01518,7.24961 8.19948,8.55646 z"
       id="path5110"
       inkscape:connector-curvature="0"
       sodipodi:nodetypes="sssss" />
    <path
       sodipodi:nodetypes="sssss"
       inkscape:connector-curvature="0"
       id="path5112"
       d="m 135.52244,306.24928 c -1.08551,1.70419 -8.05028,-2.90948 -13.85069,-6.74949 -5.80047,-3.84034 -9.14714,-7.86885 -8.06148,-9.57315 1.08549,-1.70436 5.19845,1.32373 10.99895,5.16404 5.80045,3.84027 11.99888,9.45431 10.91322,11.1586 z"
       style="opacity:1;fill:#000000;fill-opacity:1;stroke:none;stroke-width:2.83464575;stroke-linejoin:round;stroke-miterlimit:4;stroke-dasharray:none;stroke-opacity:1" />
    <path
       style="opacity:1;fill:#000000;fill-opacity:1;stroke:none;stroke-width:2.83464575;stroke-linejoin:round;stroke-miterlimit:4;stroke-dasharray:none;stroke-opacity:1"
       d="m 145.26493,80.997994 c -0.66681,1.211768 -6.39539,-2.043741 -11.16622,-4.753649 -4.77082,-2.709907 -7.69262,-5.559602 -7.02581,-6.77137 0.66682,-1.211811 4.07806,0.926086 8.84888,3.635972 4.77084,2.709907 10.00994,6.677258 9.34315,7.889047 z"
       id="path5114"
       inkscape:connector-curvature="0"
       sodipodi:nodetypes="sssss" />
    <path
       sodipodi:nodetypes="sssss"
       inkscape:connector-curvature="0"
       id="path5116"
       d="m 160.46219,62.502873 c -0.85215,0.933832 -4.75071,-3.693363 -7.99785,-7.545759 -3.2471,-3.852331 -4.93771,-7.313196 -4.08556,-8.247049 0.85216,-0.933897 3.12379,2.006027 6.37088,5.858359 3.24712,3.852395 6.56468,9.000596 5.71253,9.934449 z"
       style="opacity:1;fill:#000000;fill-opacity:1;stroke:none;stroke-width:2.83464575;stroke-linejoin:round;stroke-miterlimit:4;stroke-dasharray:none;stroke-opacity:1" />
    <path
       style="opacity:1;fill:#000000;fill-opacity:1;stroke:none;stroke-width:2.83464575;stroke-linejoin:round;stroke-miterlimit:4;stroke-dasharray:none;stroke-opacity:1"
       d="m 178.14158,47.330555 c -0.6609,0.714754 -3.33486,-3.177448 -5.5621,-6.417984 -2.22718,-3.240471 -3.32962,-6.098732 -2.66872,-6.813507 0.6609,-0.714819 2.2094,1.749257 4.4366,4.98975 2.22719,3.240514 4.4551,7.526966 3.79422,8.241741 z"
       id="path5118"
       inkscape:connector-curvature="0"
       sodipodi:nodetypes="sssss" />
    <path
       sodipodi:nodetypes="sssss"
       inkscape:connector-curvature="0"
       id="path5120"
       d="m 197.73248,38.630032 c -0.77173,0.593348 -2.75271,-3.693277 -4.40296,-7.262343 -1.6502,-3.569001 -2.256,-6.572012 -1.48426,-7.165404 0.77175,-0.593435 1.88358,2.096062 3.53379,5.665085 1.65022,3.569066 3.12515,8.16927 2.35343,8.762662 z"
       style="opacity:1;fill:#000000;fill-opacity:1;stroke:none;stroke-width:2.83464575;stroke-linejoin:round;stroke-miterlimit:4;stroke-dasharray:none;stroke-opacity:1" />
    <path
       style="opacity:1;fill:#000000;fill-opacity:1;stroke:none;stroke-width:2.83464575;stroke-linejoin:round;stroke-miterlimit:4;stroke-dasharray:none;stroke-opacity:1"
       d="m 213.59045,34.249445 c -0.84447,0.484284 -2.23151,-4.02966 -3.38729,-7.788095 -1.1557,-3.758348 -1.35253,-6.815513 -0.50806,-7.299841 0.84448,-0.48437 1.58487,2.330135 2.74058,6.088527 1.15572,3.758413 1.99919,8.515082 1.15477,8.999409 z"
       id="path5122"
       inkscape:connector-curvature="0"
       sodipodi:nodetypes="sssss" />
    <path
       sodipodi:nodetypes="sssss"
       inkscape:connector-curvature="0"
       id="path5124"
       d="m 291.21782,39.666196 c -1.46733,-0.442126 2.51437,-5.993098 5.82869,-10.615912 3.31433,-4.622642 6.78861,-7.606365 8.25601,-7.164304 1.46746,0.442083 -1.14551,3.773149 -4.45988,8.395856 -3.31439,4.622728 -8.15747,9.826399 -9.62482,9.38436 z"
       style="opacity:1;fill:#000000;fill-opacity:1;stroke:none;stroke-width:2.83464575;stroke-linejoin:round;stroke-miterlimit:4;stroke-dasharray:none;stroke-opacity:1" />
    <path
       style="opacity:1;fill:#000000;fill-opacity:1;stroke:none;stroke-width:2.83464575;stroke-linejoin:round;stroke-miterlimit:4;stroke-dasharray:none;stroke-opacity:1"
       d="m 307.99443,45.951232 c -2.33611,-0.579108 4.00308,-7.84993 9.27976,-13.905014 5.27668,-6.054869 10.80802,-9.963038 13.14424,-9.384015 2.33633,0.579065 -1.82373,4.942175 -7.10048,10.99713 -5.27679,6.054976 -12.98737,12.870878 -15.32352,12.291899 z"
       id="path5126"
       inkscape:connector-curvature="0"
       sodipodi:nodetypes="sssss" />
    <path
       sodipodi:nodetypes="ccccc"
       inkscape:connector-curvature="0"
       id="path5128"
       d="m 242.37215,203.20644 c 6.40176,36.94804 40.82402,68.04885 58.30043,84.78371 0.65139,1.6786 -2.54144,-2.2306 -4.4238,-1.92231 -26.04599,-14.547 -59.42182,-53.00908 -57.44567,-86.03995 0.71454,-1.30062 1.43943,1.33242 3.56904,3.17855 z"
       style="opacity:1;fill:#000000;fill-opacity:1;stroke:none;stroke-width:2.83464575;stroke-linejoin:round;stroke-miterlimit:4;stroke-dasharray:none;stroke-opacity:1" />
    <path
       style="opacity:1;fill:#000000;fill-opacity:1;stroke:none;stroke-width:2.83464575;stroke-linejoin:round;stroke-miterlimit:4;stroke-dasharray:none;stroke-opacity:1"
       d="m 285.31879,116.25466 c 2.75163,8.03176 4.80328,17.65631 1.36292,19.26562 -3.44039,1.60932 -8.47132,-6.42174 -13.82163,-13.43776 -5.14823,-6.75102 -3.9942,-18.86992 -0.55384,-20.47924 3.44038,-1.609315 9.68494,4.93842 13.01255,14.65138 z"
       id="path5135"
       inkscape:connector-curvature="0"
       sodipodi:nodetypes="sssss" />
    <path
       style="opacity:1;fill:#000000;fill-opacity:1;stroke:none;stroke-width:2.83464575;stroke-linejoin:round;stroke-miterlimit:4;stroke-dasharray:none;stroke-opacity:1"
       d="m 275.32486,80.368571 c -0.47512,-1.456973 6.35552,-1.358934 12.04311,-1.278544 5.68746,0.08048 10.12095,1.228187 10.59617,2.685182 0.47522,1.45706 -3.75146,1.214702 -9.43899,1.134312 -5.68756,-0.08048 -12.72507,-1.08389 -13.20027,-2.540842 z"
       id="path5140"
       inkscape:connector-curvature="0"
       sodipodi:nodetypes="sssss" />
  </g>
</svg>
