<?xml version="1.0" encoding="UTF-8" standalone="no"?>
<!-- Created with Inkscape (http://www.inkscape.org/) -->

<svg
   xmlns:dc="http://purl.org/dc/elements/1.1/"
   xmlns:cc="http://creativecommons.org/ns#"
   xmlns:rdf="http://www.w3.org/1999/02/22-rdf-syntax-ns#"
   xmlns:svg="http://www.w3.org/2000/svg"
   xmlns="http://www.w3.org/2000/svg"
   xmlns:sodipodi="http://sodipodi.sourceforge.net/DTD/sodipodi-0.dtd"
   xmlns:inkscape="http://www.inkscape.org/namespaces/inkscape"
   width="130mm"
   height="130mm"
   viewBox="0 0 460.62993 460.62993"
   id="svg2"
   version="1.1"
   inkscape:version="0.91 r"
   sodipodi:docname="wq.svg"
   inkscape:export-filename="/home/user/Desktop/bqHead"
   inkscape:export-xdpi="90"
   inkscape:export-ydpi="90">
  <defs
     id="defs4" />
  <sodipodi:namedview
     id="base"
     pagecolor="#dfdfdf"
     bordercolor="#666666"
     borderopacity="1.0"
     inkscape:pageopacity="0"
     inkscape:pageshadow="2"
     inkscape:zoom="0.5"
     inkscape:cx="205.37418"
     inkscape:cy="143.00149"
     inkscape:document-units="mm"
     inkscape:current-layer="layer3"
     showgrid="false"
     units="mm"
     showguides="true"
     inkscape:guide-bbox="true"
     inkscape:window-width="1280"
     inkscape:window-height="748"
     inkscape:window-x="0"
     inkscape:window-y="0"
     inkscape:window-maximized="1">
    <inkscape:grid
       type="xygrid"
       id="grid4136" />
  </sodipodi:namedview>
  <metadata
     id="metadata7">
    <rdf:RDF>
      <cc:Work
         rdf:about="">
        <dc:format>image/svg+xml</dc:format>
        <dc:type
           rdf:resource="http://purl.org/dc/dcmitype/StillImage" />
        <dc:title></dc:title>
      </cc:Work>
    </rdf:RDF>
  </metadata>
  <g
     inkscape:groupmode="layer"
     id="layer3"
     inkscape:label="Layer 1"
     style="display:inline">
    <path
       style="opacity:1;fill:#ffffff;fill-opacity:1;stroke:none;stroke-width:2.41653538;stroke-linecap:butt;stroke-linejoin:round;stroke-miterlimit:4;stroke-dasharray:none;stroke-opacity:1"
       d="m 125.76231,366.32153 c -0.0737,-13.93559 -1.38276,-27.48468 -5.31559,-42.17979 l -3.8703,-14.46159 C 82.062213,274.99218 32.273979,202.79868 89.112409,174.13399 121.11019,167.4993 162.03531,162.70797 186.40546,148.59828 l 5.8079,-3.40363 -2.27632,-4.52667 C 115.02594,7.3465016 344.54229,1.9835563 271.52462,140.08704 l -2.57826,5.12798 c 0,0 4.74046,3.2622 7.38411,4.34058 28.79079,11.38413 70.23639,16.42267 87.23707,20.7245 69.32193,41.17244 16.01875,100.04243 -19.08676,139.39104 l -3.85336,14.32 c -5.04332,13.64324 -4.41507,28.06003 -5.26183,42.35449 -68.13626,19.15158 -138.66762,15.78365 -209.60328,-0.0268 z"
       id="path4255"
       inkscape:connector-curvature="0"
       sodipodi:nodetypes="cccccccccccccccc" />
    <path
       style="fill:none;fill-rule:evenodd;stroke:#000000;stroke-width:4.96189833px;stroke-linecap:butt;stroke-linejoin:miter;stroke-opacity:1"
       d="m 90.458344,177.12658 c -8.732971,23.51009 -28.169399,60.06654 2.306764,70.40984 30.476162,10.3433 39.343272,-25.45641 47.033862,-64.38378"
       id="path4257"
       inkscape:connector-curvature="0"
       sodipodi:nodetypes="czc" />
    <path
       style="fill:none;fill-rule:evenodd;stroke:#000000;stroke-width:4.7482667;stroke-linecap:butt;stroke-linejoin:miter;stroke-miterlimit:4;stroke-dasharray:none;stroke-opacity:1"
       d="m 88.927265,175.43316 c 8.57696,11.22729 19.106825,22.36 50.138285,8.3904 10.51156,-4.73204 24.56958,-1.87722 35.82247,3.27708 30.73024,14.07565 64.32446,16.29019 96.99911,0.29213 12.71718,-6.22654 28.08002,-7.40001 40.77013,-4.27256 27.41807,6.7571 42.55767,4.15311 49.30852,-11.53974"
       id="path4265"
       inkscape:connector-curvature="0"
       sodipodi:nodetypes="cssssc" />
    <path
       sodipodi:nodetypes="czc"
       inkscape:connector-curvature="0"
       id="path4267"
       d="m 175.50276,186.60227 c -0.69258,31.88551 1.2993,66.55667 45.66386,65.72947 44.36455,-0.8272 50.39303,-31.31019 50.58147,-63.69281"
       style="fill:none;fill-rule:evenodd;stroke:#000000;stroke-width:4.96189833px;stroke-linecap:butt;stroke-linejoin:miter;stroke-opacity:1" />
    <path
       sodipodi:nodetypes="czc"
       inkscape:connector-curvature="0"
       id="path4269"
       d="m 360.30171,173.54935 c 8.73297,23.5101 29.01883,59.85347 -1.45732,70.19677 -30.47617,10.34331 -34.68671,-22.91505 -45.93072,-60.65794"
       style="fill:none;fill-rule:evenodd;stroke:#000000;stroke-width:4.96189833px;stroke-linecap:butt;stroke-linejoin:miter;stroke-opacity:1" />
    <path
       style="fill:none;fill-rule:evenodd;stroke:#000000;stroke-width:4.7482667;stroke-linecap:butt;stroke-linejoin:miter;stroke-miterlimit:4;stroke-dasharray:none;stroke-opacity:1"
       d="m 191.93103,145.09768 c 26.3185,8.86349 52.2378,11.6061 77.22132,0"
       id="path4271"
       inkscape:connector-curvature="0"
       sodipodi:nodetypes="cc" />
    <path
       style="opacity:1;fill:#ffffff;fill-opacity:1;stroke:none;stroke-width:2.41653538;stroke-linecap:butt;stroke-linejoin:round;stroke-miterlimit:4;stroke-dasharray:none;stroke-opacity:1"
       d="m 366.16279,388.49432 c 0,18.53173 -61.8784,33.55468 -138.20927,33.55468 -76.33082,0 -133.589842,-13.7631 -133.589842,-32.29483 0,-18.53175 60.198592,-34.81454 136.529462,-34.81454 76.33088,0 135.26965,15.02294 135.26965,33.55469 z"
       id="ellipse6021"
       inkscape:connector-curvature="0"
       sodipodi:nodetypes="sssss" />
    <ellipse
       style="opacity:1;fill:#ffffff;fill-opacity:1;stroke:none;stroke-width:2.41653538;stroke-linecap:butt;stroke-linejoin:round;stroke-miterlimit:4;stroke-dasharray:none;stroke-opacity:1"
       id="path6003"
       cx="230.15054"
       cy="344.66605"
       rx="122.04145"
       ry="33.55468" />
    <rect
       style="opacity:1;fill:#ffffff;fill-opacity:1;stroke:none;stroke-width:2.41653538;stroke-linecap:butt;stroke-linejoin:round;stroke-miterlimit:4;stroke-dasharray:none;stroke-opacity:1"
       id="rect6009"
       width="208.5489"
       height="24.962027"
       x="125.98881"
       y="355.0621"
       ry="0" />
    <path
       sodipodi:nodetypes="cc"
       inkscape:connector-curvature="0"
       id="path6019"
       d="m 121.05788,331.83581 c 90.0219,24.16917 147.99277,12.60038 218.53193,-1.93342"
       style="opacity:1;fill:none;fill-rule:evenodd;stroke:#000000;stroke-width:4.75110531px;stroke-linecap:butt;stroke-linejoin:miter;stroke-opacity:1" />
    <path
       style="opacity:1;fill:none;fill-rule:evenodd;stroke:#000000;stroke-width:4.75110531px;stroke-linecap:butt;stroke-linejoin:miter;stroke-opacity:1"
       d="m 125.70196,370.2832 c 70.2846,18.28995 139.2985,17.48057 209.83774,-0.41288"
       id="path6023"
       inkscape:connector-curvature="0"
       sodipodi:nodetypes="cc" />
  </g>
</svg>
